Pacifico-Light-FINAL.ufo
<glyph name="quotedbl" format="1">
  <advance width="404"/>
  <unicode hex="0022"/>
  <outline>
    <contour>
      <point x="106" y="396" type="curve" smooth="yes"/>
      <point x="115" y="396"/>
      <point x="124" y="408"/>
      <point x="125" y="421" type="curve" smooth="yes"/>
      <point x="132" y="470"/>
      <point x="138" y="540"/>
      <point x="138" y="597" type="curve" smooth="yes"/>
      <point x="138" y="617"/>
      <point x="126" y="626"/>
      <point x="109" y="626" type="curve" smooth="yes"/>
      <point x="92" y="626"/>
      <point x="74" y="613"/>
      <point x="74" y="591" type="curve" smooth="yes"/>
      <point x="74" y="534"/>
      <point x="82" y="474"/>
      <point x="87" y="422" type="curve" smooth="yes"/>
      <point x="89" y="405"/>
      <point x="94" y="396"/>
    </contour>
    <contour>
      <point x="227" y="396" type="curve" smooth="yes"/>
      <point x="238" y="396"/>
      <point x="247" y="408"/>
      <point x="250" y="422" type="curve" smooth="yes"/>
      <point x="259" y="471"/>
      <point x="266" y="529"/>
      <point x="272" y="599" type="curve" smooth="yes"/>
      <point x="273" y="600"/>
      <point x="273" y="600"/>
      <point x="273" y="602" type="curve" smooth="yes"/>
      <point x="273" y="618"/>
      <point x="261" y="626"/>
      <point x="248" y="626" type="curve" smooth="yes"/>
      <point x="227" y="626"/>
      <point x="206" y="613"/>
      <point x="206" y="591" type="curve" smooth="yes"/>
      <point x="206" y="533"/>
      <point x="208" y="480"/>
      <point x="208" y="421" type="curve" smooth="yes"/>
      <point x="208" y="406"/>
      <point x="215" y="396"/>
    </contour>
  </outline>
</glyph>
<glyph name="hyphen" format="1">
  <advance width="333"/>
  <unicode hex="002D"/>
  <outline>
    <contour>
      <point x="110" y="187" type="curve" smooth="yes"/>
      <point x="285" y="204" type="line" smooth="yes"/>
      <point x="305" y="205"/>
      <point x="307" y="212"/>
      <point x="307" y="222" type="curve" smooth="yes"/>
      <point x="307" y="233"/>
      <point x="299" y="235"/>
      <point x="288" y="235" type="curve" smooth="yes"/>
      <point x="110" y="228" type="line" smooth="yes"/>
      <point x="97" y="228"/>
      <point x="88" y="222"/>
      <point x="88" y="208" type="curve" smooth="yes"/>
      <point x="88" y="192"/>
      <point x="98" y="187"/>
    </contour>
  </outline>
</glyph>
<glyph name="one" format="1">
  <advance width="333"/>
  <unicode hex="0031"/>
  <outline>
    <contour>
      <point x="171" y="10" type="curve" smooth="yes"/>
      <point x="202" y="170"/>
      <point x="249" y="417"/>
      <point x="255" y="448" type="curve" smooth="yes"/>
      <point x="256" y="455"/>
      <point x="257" y="461"/>
      <point x="257" y="467" type="curve" smooth="yes"/>
      <point x="257" y="482"/>
      <point x="253" y="492"/>
      <point x="241" y="492" type="curve" smooth="yes"/>
      <point x="236" y="492" type="line" smooth="yes"/>
      <point x="201" y="485"/>
      <point x="157" y="471"/>
      <point x="129" y="462" type="curve" smooth="yes"/>
      <point x="118" y="459"/>
      <point x="113" y="448"/>
      <point x="113" y="437" type="curve" smooth="yes"/>
      <point x="113" y="426"/>
      <point x="118" y="414"/>
      <point x="129" y="414" type="curve" smooth="yes"/>
      <point x="131" y="414"/>
      <point x="132" y="415"/>
      <point x="134" y="415" type="curve" smooth="yes"/>
      <point x="147" y="418"/>
      <point x="186" y="429"/>
      <point x="202" y="435" type="curve"/>
      <point x="171" y="274"/>
      <point x="167" y="242"/>
      <point x="121" y="22" type="curve" smooth="yes"/>
      <point x="121" y="20"/>
      <point x="120" y="18"/>
      <point x="120" y="16" type="curve" smooth="yes"/>
      <point x="120" y="2"/>
      <point x="132" y="-3"/>
      <point x="145" y="-3" type="curve" smooth="yes"/>
      <point x="157" y="-3"/>
      <point x="169" y="2"/>
    </contour>
  </outline>
</glyph>
<glyph name="two" format="1">
  <advance width="417"/>
  <unicode hex="0032"/>
  <outline>
    <contour>
      <point x="125" y="36" type="curve" smooth="yes"/>
      <point x="89" y="36"/>
      <point x="77" y="66"/>
      <point x="77" y="85" type="curve" smooth="yes"/>
      <point x="77" y="102"/>
      <point x="88" y="120"/>
      <point x="111" y="120" type="curve" smooth="yes"/>
      <point x="148" y="120"/>
      <point x="179" y="92"/>
      <point x="201" y="78" type="curve"/>
      <point x="184" y="53"/>
      <point x="151" y="36"/>
    </contour>
    <contour>
      <point x="220" y="449" type="curve" smooth="yes"/>
      <point x="285" y="449"/>
      <point x="313" y="393"/>
      <point x="313" y="331" type="curve" smooth="yes"/>
      <point x="313" y="236"/>
      <point x="267" y="150"/>
      <point x="229" y="109" type="curve"/>
      <point x="198" y="129"/>
      <point x="153" y="164"/>
      <point x="106" y="164" type="curve" smooth="yes"/>
      <point x="60" y="164"/>
      <point x="32" y="128"/>
      <point x="32" y="84" type="curve" smooth="yes"/>
      <point x="32" y="35"/>
      <point x="75" y="-3"/>
      <point x="127" y="-3" type="curve" smooth="yes"/>
      <point x="168" y="-3"/>
      <point x="203" y="25"/>
      <point x="231" y="50" type="curve"/>
      <point x="256" y="30"/>
      <point x="281" y="0"/>
      <point x="318" y="0" type="curve" smooth="yes"/>
      <point x="355" y="0"/>
      <point x="368" y="33"/>
      <point x="368" y="65" type="curve" smooth="yes"/>
      <point x="368" y="75"/>
      <point x="360" y="75"/>
      <point x="359" y="73" type="curve" smooth="yes"/>
      <point x="354" y="66"/>
      <point x="341" y="50"/>
      <point x="328" y="50" type="curve" smooth="yes"/>
      <point x="297" y="50"/>
      <point x="279" y="68"/>
      <point x="259" y="81" type="curve"/>
      <point x="305" y="131"/>
      <point x="364" y="225"/>
      <point x="364" y="344" type="curve" smooth="yes"/>
      <point x="364" y="440"/>
      <point x="300" y="495"/>
      <point x="222" y="495" type="curve" smooth="yes"/>
      <point x="151" y="495"/>
      <point x="77" y="462"/>
      <point x="77" y="392" type="curve" smooth="yes"/>
      <point x="77" y="357"/>
      <point x="99" y="327"/>
      <point x="120" y="327" type="curve" smooth="yes"/>
      <point x="132" y="327"/>
      <point x="141" y="335"/>
      <point x="141" y="343" type="curve" smooth="yes"/>
      <point x="141" y="357"/>
      <point x="124" y="377"/>
      <point x="124" y="396" type="curve" smooth="yes"/>
      <point x="124" y="436"/>
      <point x="169" y="449"/>
    </contour>
  </outline>
</glyph>
<glyph name="five" format="1">
  <advance width="395"/>
  <unicode hex="0035"/>
  <outline>
    <contour>
      <point x="29" y="105" type="curve" smooth="yes"/>
      <point x="29" y="38"/>
      <point x="92" y="-10"/>
      <point x="177" y="-10" type="curve" smooth="yes"/>
      <point x="266" y="-10"/>
      <point x="340" y="45"/>
      <point x="340" y="155" type="curve" smooth="yes"/>
      <point x="340" y="235"/>
      <point x="279" y="282"/>
      <point x="179" y="282" type="curve" smooth="yes"/>
      <point x="165" y="282"/>
      <point x="150" y="281"/>
      <point x="135" y="279" type="curve"/>
      <point x="174" y="417" type="line" smooth="yes"/>
      <point x="177" y="417" type="line" smooth="yes"/>
      <point x="237" y="417"/>
      <point x="298" y="396"/>
      <point x="337" y="396" type="curve" smooth="yes"/>
      <point x="363" y="396"/>
      <point x="379" y="405"/>
      <point x="379" y="434" type="curve" smooth="yes"/>
      <point x="379" y="463"/>
      <point x="368" y="471"/>
      <point x="360" y="471" type="curve" smooth="yes"/>
      <point x="357" y="471"/>
      <point x="354" y="470"/>
      <point x="353" y="468" type="curve" smooth="yes"/>
      <point x="332" y="450"/>
      <point x="315" y="444"/>
      <point x="297" y="444" type="curve" smooth="yes"/>
      <point x="265" y="444"/>
      <point x="228" y="461"/>
      <point x="155" y="461" type="curve" smooth="yes"/>
      <point x="91" y="461"/>
      <point x="149" y="452"/>
      <point x="95" y="278" type="curve" smooth="yes"/>
      <point x="93" y="273"/>
      <point x="93" y="268"/>
      <point x="93" y="264" type="curve" smooth="yes"/>
      <point x="93" y="248"/>
      <point x="106" y="242"/>
      <point x="118" y="242" type="curve" smooth="yes"/>
      <point x="129" y="242"/>
      <point x="140" y="243"/>
      <point x="151" y="243" type="curve" smooth="yes"/>
      <point x="223" y="243"/>
      <point x="286" y="225"/>
      <point x="286" y="152" type="curve" smooth="yes"/>
      <point x="286" y="67"/>
      <point x="237" y="27"/>
      <point x="177" y="27" type="curve" smooth="yes"/>
      <point x="120" y="27"/>
      <point x="80" y="57"/>
      <point x="80" y="92" type="curve" smooth="yes"/>
      <point x="80" y="125"/>
      <point x="104" y="139"/>
      <point x="104" y="149" type="curve" smooth="yes"/>
      <point x="104" y="158"/>
      <point x="97" y="164"/>
      <point x="68" y="164" type="curve" smooth="yes"/>
      <point x="40" y="164"/>
      <point x="29" y="141"/>
    </contour>
  </outline>
</glyph>
<glyph name="seven" format="1">
  <advance width="417"/>
  <unicode hex="0037"/>
  <outline>
    <contour>
      <point x="87" y="427" type="curve" smooth="yes"/>
      <point x="87" y="413"/>
      <point x="97" y="396"/>
      <point x="111" y="396" type="curve" smooth="yes"/>
      <point x="130" y="396"/>
      <point x="142" y="428"/>
      <point x="204" y="428" type="curve" smooth="yes"/>
      <point x="209" y="428" type="line" smooth="yes"/>
      <point x="320" y="425" type="line"/>
      <point x="260" y="337"/>
      <point x="130" y="106"/>
      <point x="130" y="10" type="curve" smooth="yes"/>
      <point x="130" y="-4"/>
      <point x="139" y="-11"/>
      <point x="150" y="-11" type="curve" smooth="yes"/>
      <point x="163" y="-11"/>
      <point x="178" y="-2"/>
      <point x="184" y="18" type="curve" smooth="yes"/>
      <point x="221" y="141"/>
      <point x="275" y="283"/>
      <point x="360" y="410" type="curve" smooth="yes"/>
      <point x="369" y="425"/>
      <point x="392" y="428"/>
      <point x="392" y="445" type="curve" smooth="yes"/>
      <point x="392" y="459"/>
      <point x="389" y="465"/>
      <point x="381" y="465" type="curve" smooth="yes"/>
      <point x="374" y="465"/>
      <point x="342" y="462"/>
      <point x="327" y="462" type="curve" smooth="yes"/>
      <point x="289" y="462"/>
      <point x="211" y="467"/>
      <point x="147" y="467" type="curve" smooth="yes"/>
      <point x="103" y="467"/>
      <point x="87" y="446"/>
    </contour>
  </outline>
</glyph>
<glyph name="D" format="1">
  <advance width="558"/>
  <unicode hex="0044"/>
  <outline>
    <contour>
      <point x="322" y="658" type="move" name="top"/>
    </contour>
    <contour>
      <point x="177" y="-36" type="move" name="bot"/>
    </contour>
    <contour>
      <point x="162" y="-41" type="curve" smooth="yes"/>
      <point x="417" y="-41"/>
      <point x="556" y="164"/>
      <point x="556" y="353" type="curve" smooth="yes"/>
      <point x="556" y="514"/>
      <point x="454" y="663"/>
      <point x="238" y="663" type="curve" smooth="yes"/>
      <point x="148" y="663"/>
      <point x="75" y="634"/>
      <point x="23" y="577" type="curve" smooth="yes"/>
      <point x="6" y="559"/>
      <point x="-13" y="529"/>
      <point x="-13" y="500" type="curve" smooth="yes"/>
      <point x="-13" y="491"/>
      <point x="-7" y="481"/>
      <point x="0" y="481" type="curve" smooth="yes"/>
      <point x="21" y="481"/>
      <point x="19" y="505"/>
      <point x="62" y="547" type="curve" smooth="yes"/>
      <point x="112" y="598"/>
      <point x="178" y="612"/>
      <point x="225" y="612" type="curve" smooth="yes"/>
      <point x="410" y="612"/>
      <point x="497" y="484"/>
      <point x="497" y="346" type="curve" smooth="yes"/>
      <point x="497" y="180"/>
      <point x="377" y="3"/>
      <point x="156" y="3" type="curve" smooth="yes"/>
      <point x="144" y="3" type="line" smooth="yes"/>
      <point x="115" y="3"/>
      <point x="110" y="3"/>
      <point x="110" y="16" type="curve" smooth="yes"/>
      <point x="110" y="137"/>
      <point x="169" y="458"/>
      <point x="226" y="537" type="curve"/>
      <point x="219" y="547"/>
      <point x="211" y="551"/>
      <point x="202" y="551" type="curve" smooth="yes"/>
      <point x="192" y="551"/>
      <point x="180" y="547"/>
      <point x="167" y="538" type="curve"/>
      <point x="96" y="439"/>
      <point x="60" y="154"/>
      <point x="51" y="-14" type="curve" smooth="yes"/>
      <point x="50" y="-23"/>
      <point x="50" y="-23"/>
      <point x="55" y="-25" type="curve" smooth="yes"/>
      <point x="76" y="-33"/>
      <point x="118" y="-41"/>
    </contour>
  </outline>
</glyph>
<glyph name="F" format="1">
  <advance width="440"/>
  <unicode hex="0046"/>
  <outline>
    <contour>
      <point x="412" y="658" type="move" name="top"/>
    </contour>
    <contour>
      <point x="128" y="-68" type="curve" smooth="yes"/>
      <point x="251" y="-68"/>
      <point x="306" y="27"/>
      <point x="345" y="270" type="curve"/>
      <point x="394" y="270"/>
      <point x="427" y="271"/>
      <point x="450" y="277" type="curve" smooth="yes"/>
      <point x="457" y="279"/>
      <point x="465" y="287"/>
      <point x="465" y="295" type="curve" smooth="yes"/>
      <point x="465" y="302"/>
      <point x="464" y="310"/>
      <point x="447" y="313" type="curve" smooth="yes"/>
      <point x="440" y="314"/>
      <point x="430" y="315"/>
      <point x="417" y="315" type="curve" smooth="yes"/>
      <point x="400" y="315"/>
      <point x="378" y="314"/>
      <point x="353" y="314" type="curve"/>
      <point x="358" y="335"/>
      <point x="405" y="546"/>
      <point x="422" y="615" type="curve"/>
      <point x="440" y="618"/>
      <point x="466" y="619"/>
      <point x="496" y="619" type="curve" smooth="yes"/>
      <point x="548" y="619"/>
      <point x="611" y="615"/>
      <point x="664" y="608" type="curve" smooth="yes"/>
      <point x="671" y="608" type="line" smooth="yes"/>
      <point x="692" y="608"/>
      <point x="703" y="617"/>
      <point x="703" y="635" type="curve" smooth="yes"/>
      <point x="703" y="667"/>
      <point x="516" y="669"/>
      <point x="461" y="669" type="curve" smooth="yes"/>
      <point x="270" y="669"/>
      <point x="30" y="610"/>
      <point x="30" y="432" type="curve" smooth="yes"/>
      <point x="30" y="388"/>
      <point x="44" y="337"/>
      <point x="78" y="278" type="curve" smooth="yes"/>
      <point x="86" y="268"/>
      <point x="104" y="261"/>
      <point x="116" y="261" type="curve" smooth="yes"/>
      <point x="124" y="261"/>
      <point x="129" y="264"/>
      <point x="129" y="271" type="curve" smooth="yes"/>
      <point x="129" y="275"/>
      <point x="127" y="281"/>
      <point x="123" y="288" type="curve" smooth="yes"/>
      <point x="90" y="343"/>
      <point x="76" y="388"/>
      <point x="76" y="426" type="curve" smooth="yes"/>
      <point x="76" y="551"/>
      <point x="230" y="594"/>
      <point x="370" y="615" type="curve"/>
      <point x="350" y="529"/>
      <point x="329" y="426"/>
      <point x="303" y="313" type="curve"/>
      <point x="237" y="311"/>
      <point x="216" y="304"/>
      <point x="216" y="287" type="curve" smooth="yes"/>
      <point x="216" y="276"/>
      <point x="224" y="272"/>
      <point x="250" y="270" type="curve" smooth="yes"/>
      <point x="259" y="270"/>
      <point x="282" y="269"/>
      <point x="295" y="269" type="curve"/>
      <point x="281" y="209"/>
      <point x="253" y="-25"/>
      <point x="137" y="-25" type="curve" smooth="yes"/>
      <point x="76" y="-25"/>
      <point x="95" y="6"/>
      <point x="62" y="6" type="curve" smooth="yes"/>
      <point x="48" y="6"/>
      <point x="37" y="-8"/>
      <point x="37" y="-25" type="curve" smooth="yes"/>
      <point x="37" y="-58"/>
      <point x="91" y="-68"/>
    </contour>
  </outline>
</glyph>
<glyph name="X" format="1">
  <advance width="610"/>
  <unicode hex="0058"/>
  <outline>
    <contour>
      <point x="-6" y="451" type="curve" smooth="yes"/>
      <point x="62" y="511"/>
      <point x="102" y="535"/>
      <point x="129" y="535" type="curve" smooth="yes"/>
      <point x="156" y="535"/>
      <point x="170" y="511"/>
      <point x="184" y="477" type="curve" smooth="yes"/>
      <point x="289.607" y="224.392" type="line"/>
      <point x="250.306" y="177.125"/>
      <point x="212.906" y="132.603"/>
      <point x="180" y="93" type="curve" smooth="yes"/>
      <point x="97" y="-7"/>
      <point x="42" y="-35"/>
      <point x="-42" y="-35" type="curve" smooth="yes"/>
      <point x="-57" y="-35"/>
      <point x="-65" y="-49"/>
      <point x="-65" y="-63" type="curve" smooth="yes"/>
      <point x="-65" y="-79"/>
      <point x="-56" y="-95"/>
      <point x="-35" y="-95" type="curve" smooth="yes"/>
      <point x="37" y="-95"/>
      <point x="93" y="-70"/>
      <point x="208" y="61" type="curve" smooth="yes"/>
      <point x="237.438" y="94.3811"/>
      <point x="271.506" y="135.845"/>
      <point x="307.787" y="180.907" type="curve"/>
      <point x="383" y="1" type="line" smooth="yes"/>
      <point x="407" y="-56"/>
      <point x="439" y="-84"/>
      <point x="476" y="-84" type="curve" smooth="yes"/>
      <point x="505" y="-84"/>
      <point x="537" y="-67"/>
      <point x="570" y="-35" type="curve" smooth="yes"/>
      <point x="680" y="72" type="line"/>
      <point x="681" y="73" type="line"/>
      <point x="681" y="79"/>
      <point x="657" y="97"/>
      <point x="652" y="97" type="curve" smooth="yes"/>
      <point x="651" y="97" type="line"/>
      <point x="541" y="-7" type="line" smooth="yes"/>
      <point x="522" y="-25"/>
      <point x="505" y="-34"/>
      <point x="490" y="-34" type="curve" smooth="yes"/>
      <point x="464" y="-34"/>
      <point x="444" y="-8"/>
      <point x="426" y="37" type="curve" smooth="yes"/>
      <point x="348.912" y="232.261" type="line"/>
      <point x="440.404" y="346.931"/>
      <point x="539.708" y="473.069"/>
      <point x="612" y="546" type="curve" smooth="yes"/>
      <point x="623" y="558"/>
      <point x="628" y="568"/>
      <point x="628" y="577" type="curve" smooth="yes"/>
      <point x="628" y="592"/>
      <point x="614" y="602"/>
      <point x="599" y="602" type="curve" smooth="yes"/>
      <point x="589" y="602"/>
      <point x="579" y="597"/>
      <point x="573" y="587" type="curve" smooth="yes"/>
      <point x="503.928" y="487.633"/>
      <point x="415.765" y="377.252"/>
      <point x="331.869" y="275.432" type="curve"/>
      <point x="244" y="498" type="line" smooth="yes"/>
      <point x="225" y="548"/>
      <point x="190" y="581"/>
      <point x="141" y="581" type="curve" smooth="yes"/>
      <point x="95" y="581"/>
      <point x="36" y="551"/>
      <point x="-34" y="479" type="curve" smooth="yes"/>
      <point x="-36" y="477"/>
      <point x="-37" y="474"/>
      <point x="-37" y="471" type="curve" smooth="yes"/>
      <point x="-37" y="460"/>
      <point x="-23" y="449"/>
      <point x="-13" y="449" type="curve" smooth="yes"/>
      <point x="-10" y="449"/>
      <point x="-8" y="449"/>
    </contour>
  </outline>
</glyph>
<glyph name="asciicircum" format="1">
  <advance width="372"/>
  <unicode hex="005E"/>
  <outline>
    <contour>
      <point x="66" y="185" type="curve" smooth="yes"/>
      <point x="82" y="185"/>
      <point x="93" y="199"/>
      <point x="100" y="211" type="curve" smooth="yes"/>
      <point x="106" y="223"/>
      <point x="169" y="375"/>
      <point x="194" y="402" type="curve"/>
      <point x="212" y="375"/>
      <point x="270" y="240"/>
      <point x="277" y="224" type="curve" smooth="yes"/>
      <point x="285" y="206"/>
      <point x="300" y="184"/>
      <point x="319" y="184" type="curve" smooth="yes"/>
      <point x="333" y="184"/>
      <point x="339" y="199"/>
      <point x="339" y="213" type="curve" smooth="yes"/>
      <point x="339" y="219"/>
      <point x="338" y="224"/>
      <point x="336" y="229" type="curve" smooth="yes"/>
      <point x="313" y="290"/>
      <point x="287" y="348"/>
      <point x="259" y="402" type="curve" smooth="yes"/>
      <point x="245" y="429"/>
      <point x="229" y="449"/>
      <point x="194" y="449" type="curve" smooth="yes"/>
      <point x="160" y="449"/>
      <point x="144" y="415"/>
      <point x="126" y="382" type="curve" smooth="yes"/>
      <point x="109" y="350"/>
      <point x="90" y="313"/>
      <point x="73" y="280" type="curve" smooth="yes"/>
      <point x="61" y="257"/>
      <point x="42" y="236"/>
      <point x="42" y="212" type="curve" smooth="yes"/>
      <point x="42" y="195"/>
      <point x="59" y="185"/>
    </contour>
  </outline>
</glyph>
<glyph name="a" format="1">
  <advance width="333"/>
  <unicode hex="0061"/>
  <outline>
    <contour>
      <point x="242" y="333" type="move" name="top"/>
    </contour>
    <contour>
      <point x="282" y="-1" type="move" name="ogonek"/>
    </contour>
    <contour>
      <point x="212" y="150" type="line" smooth="yes"/>
      <point x="203" y="117"/>
      <point x="170" y="36"/>
      <point x="112" y="36" type="curve" smooth="yes"/>
      <point x="79" y="36"/>
      <point x="66" y="58"/>
      <point x="66" y="90" type="curve" smooth="yes"/>
      <point x="66" y="165"/>
      <point x="143" y="288"/>
      <point x="239" y="288" type="curve" smooth="yes"/>
      <point x="243" y="288"/>
      <point x="246" y="287"/>
      <point x="250" y="287" type="curve" smooth="yes"/>
    </contour>
    <contour>
      <point x="18" y="88" type="curve" smooth="yes"/>
      <point x="18" y="35"/>
      <point x="41" y="-6"/>
      <point x="102" y="-6" type="curve" smooth="yes"/>
      <point x="151.177" y="-6"/>
      <point x="204.502" y="24.6864"/>
      <point x="221.187" y="75.4851" type="curve"/>
      <point x="221.068" y="73.6568"/>
      <point x="221" y="71.8284"/>
      <point x="221" y="70" type="curve" smooth="yes"/>
      <point x="221" y="27"/>
      <point x="246" y="-1"/>
      <point x="282" y="-1" type="curve" smooth="yes"/>
      <point x="333" y="-1"/>
      <point x="385" y="46"/>
      <point x="409" y="80" type="curve"/>
      <point x="409" y="80"/>
      <point x="410" y="82"/>
      <point x="410" y="87" type="curve" smooth="yes"/>
      <point x="410" y="97"/>
      <point x="403" y="123"/>
      <point x="396" y="123" type="curve"/>
      <point x="396" y="123"/>
      <point x="393" y="123"/>
      <point x="389" y="117" type="curve" smooth="yes"/>
      <point x="372" y="95"/>
      <point x="342" y="50"/>
      <point x="291" y="43" type="curve" smooth="yes"/>
      <point x="287" y="43" type="line" smooth="yes"/>
      <point x="267" y="43"/>
      <point x="260" y="61"/>
      <point x="260" y="82" type="curve" smooth="yes"/>
      <point x="260" y="88"/>
      <point x="261" y="93"/>
      <point x="262" y="99" type="curve" smooth="yes"/>
      <point x="298" y="282" type="line" smooth="yes"/>
      <point x="299" y="284"/>
      <point x="299" y="287"/>
      <point x="299" y="289" type="curve" smooth="yes"/>
      <point x="299" y="299"/>
      <point x="293" y="305"/>
      <point x="281" y="305" type="curve" smooth="yes"/>
      <point x="260" y="305" type="line" smooth="yes"/>
      <point x="260" y="307"/>
      <point x="261" y="309"/>
      <point x="261" y="311" type="curve" smooth="yes"/>
      <point x="261" y="321"/>
      <point x="255" y="332"/>
      <point x="222" y="332" type="curve" smooth="yes"/>
      <point x="110" y="332"/>
      <point x="18" y="188"/>
    </contour>
  </outline>
</glyph>
<glyph name="c" format="1">
  <advance width="281"/>
  <unicode hex="0063"/>
  <outline>
    <contour>
      <point x="222" y="333" type="move" name="top"/>
    </contour>
    <contour>
      <point x="146" y="0" type="move" name="bot"/>
    </contour>
    <contour>
      <point x="25" y="125" type="curve" smooth="yes"/>
      <point x="25" y="44"/>
      <point x="82" y="-7"/>
      <point x="171" y="-7" type="curve" smooth="yes"/>
      <point x="263" y="-7"/>
      <point x="327" y="49"/>
      <point x="359" y="105" type="curve" smooth="yes"/>
      <point x="362" y="109"/>
      <point x="363" y="114"/>
      <point x="363" y="118" type="curve" smooth="yes"/>
      <point x="363" y="130"/>
      <point x="355" y="141"/>
      <point x="346" y="141" type="curve" smooth="yes"/>
      <point x="342" y="141"/>
      <point x="338" y="139"/>
      <point x="335" y="135" type="curve" smooth="yes"/>
      <point x="296" y="76"/>
      <point x="244" y="36"/>
      <point x="176" y="36" type="curve" smooth="yes"/>
      <point x="114" y="36"/>
      <point x="83" y="71"/>
      <point x="83" y="135" type="curve" smooth="yes"/>
      <point x="85" y="237"/>
      <point x="157" y="284"/>
      <point x="193" y="284" type="curve" smooth="yes"/>
      <point x="194" y="284" type="line" smooth="yes"/>
      <point x="218" y="284"/>
      <point x="230" y="268"/>
      <point x="230" y="248" type="curve" smooth="yes"/>
      <point x="230" y="233"/>
      <point x="224" y="216"/>
      <point x="211" y="200" type="curve" smooth="yes"/>
      <point x="209" y="198"/>
      <point x="209" y="196"/>
      <point x="209" y="193" type="curve" smooth="yes"/>
      <point x="209" y="185"/>
      <point x="217" y="175"/>
      <point x="227" y="175" type="curve" smooth="yes"/>
      <point x="232" y="175"/>
      <point x="237" y="177"/>
      <point x="242" y="182" type="curve" smooth="yes"/>
      <point x="256" y="194"/>
      <point x="274" y="216"/>
      <point x="274" y="257" type="curve" smooth="yes"/>
      <point x="274" y="301"/>
      <point x="241" y="330"/>
      <point x="193" y="330" type="curve" smooth="yes"/>
      <point x="108" y="330"/>
      <point x="25" y="229"/>
    </contour>
  </outline>
</glyph>
<glyph name="i" format="1">
  <advance width="205"/>
  <unicode hex="0069"/>
  <outline>
    <contour>
      <point x="0" y="0" type="move" name="ogonek"/>
    </contour>
    <contour>
      <point x="191" y="412" type="curve" smooth="yes"/>
      <point x="218" y="412"/>
      <point x="235" y="430"/>
      <point x="235" y="454" type="curve" smooth="yes"/>
      <point x="235" y="472"/>
      <point x="221" y="485"/>
      <point x="198" y="485" type="curve" smooth="yes"/>
      <point x="171" y="485"/>
      <point x="151" y="470"/>
      <point x="151" y="446" type="curve" smooth="yes"/>
      <point x="151" y="423"/>
      <point x="166" y="412"/>
    </contour>
    <contour>
      <point x="38" y="88" type="curve" smooth="yes"/>
      <point x="38" y="37"/>
      <point x="72" y="-1"/>
      <point x="125" y="-1" type="curve" smooth="yes"/>
      <point x="171" y="-1"/>
      <point x="222" y="27"/>
      <point x="269" y="83" type="curve" smooth="yes"/>
      <point x="275" y="92"/>
      <point x="276" y="96"/>
      <point x="277" y="101" type="curve" smooth="yes"/>
      <point x="277" y="111"/>
      <point x="267" y="120"/>
      <point x="255" y="120" type="curve" smooth="yes"/>
      <point x="251" y="119"/>
      <point x="248" y="116"/>
      <point x="245" y="113" type="curve" smooth="yes"/>
      <point x="202" y="65"/>
      <point x="162" y="42"/>
      <point x="133" y="42" type="curve" smooth="yes"/>
      <point x="107" y="42"/>
      <point x="91" y="60"/>
      <point x="91" y="94" type="curve" smooth="yes"/>
      <point x="91" y="147"/>
      <point x="131" y="248"/>
      <point x="157" y="297" type="curve" smooth="yes"/>
      <point x="159" y="301"/>
      <point x="161" y="305"/>
      <point x="161" y="309" type="curve" smooth="yes"/>
      <point x="161" y="319"/>
      <point x="148" y="327"/>
      <point x="132" y="327" type="curve" smooth="yes"/>
      <point x="119" y="327"/>
      <point x="113" y="319"/>
      <point x="103" y="301" type="curve" smooth="yes"/>
      <point x="76" y="250"/>
      <point x="38" y="147"/>
    </contour>
  </outline>
</glyph>
<glyph name="n" format="1">
  <advance width="363"/>
  <unicode hex="006E"/>
  <outline>
    <contour>
      <point x="184" y="0" type="move" name="bot"/>
    </contour>
    <contour>
      <point x="252" y="333" type="move" name="top"/>
    </contour>
    <contour>
      <point x="232" y="59" type="curve" smooth="yes"/>
      <point x="232" y="18"/>
      <point x="261" y="-4"/>
      <point x="302" y="-4" type="curve" smooth="yes"/>
      <point x="340" y="-4"/>
      <point x="403" y="19"/>
      <point x="451" y="102" type="curve" smooth="yes"/>
      <point x="452" y="104"/>
      <point x="452" y="105"/>
      <point x="452" y="107" type="curve" smooth="yes"/>
      <point x="452" y="117"/>
      <point x="440" y="130"/>
      <point x="428" y="130" type="curve" smooth="yes"/>
      <point x="423" y="130"/>
      <point x="418" y="127"/>
      <point x="414" y="121" type="curve" smooth="yes"/>
      <point x="378" y="61"/>
      <point x="345" y="42"/>
      <point x="320" y="40" type="curve" smooth="yes"/>
      <point x="312" y="40" type="line" smooth="yes"/>
      <point x="293" y="40"/>
      <point x="284" y="49"/>
      <point x="284" y="64" type="curve" smooth="yes"/>
      <point x="284" y="66"/>
      <point x="285" y="68"/>
      <point x="285" y="71" type="curve" smooth="yes"/>
      <point x="292" y="130"/>
      <point x="323" y="222"/>
      <point x="346" y="289" type="curve" smooth="yes"/>
      <point x="347" y="291"/>
      <point x="347" y="294"/>
      <point x="347" y="296" type="curve" smooth="yes"/>
      <point x="347" y="311"/>
      <point x="333" y="328"/>
      <point x="304" y="328" type="curve" smooth="yes"/>
      <point x="267" y="328"/>
      <point x="166" y="262"/>
      <point x="91" y="74" type="curve"/>
      <point x="94" y="147"/>
      <point x="125" y="266"/>
      <point x="141" y="305" type="curve" smooth="yes"/>
      <point x="141" y="306"/>
      <point x="142" y="307"/>
      <point x="142" y="308" type="curve" smooth="yes"/>
      <point x="142" y="316"/>
      <point x="129" y="326"/>
      <point x="116" y="326" type="curve" smooth="yes"/>
      <point x="99" y="326"/>
      <point x="95" y="315"/>
      <point x="87" y="298" type="curve" smooth="yes"/>
      <point x="60" y="235"/>
      <point x="43" y="131"/>
      <point x="43" y="63" type="curve" smooth="yes"/>
      <point x="43" y="46" type="line" smooth="yes"/>
      <point x="43" y="19"/>
      <point x="46" y="0"/>
      <point x="68" y="0" type="curve" smooth="yes"/>
      <point x="94" y="0"/>
      <point x="103" y="2"/>
      <point x="116" y="32" type="curve" smooth="yes"/>
      <point x="170" y="190"/>
      <point x="265" y="269"/>
      <point x="281" y="269" type="curve" smooth="yes"/>
      <point x="283" y="269"/>
      <point x="284" y="267"/>
      <point x="284" y="264" type="curve" smooth="yes"/>
      <point x="284" y="239"/>
      <point x="232" y="134"/>
    </contour>
  </outline>
</glyph>
<glyph name="t" format="1">
  <advance width="247"/>
  <unicode hex="0074"/>
  <outline>
    <contour>
      <point x="176" y="0" type="move" name="bot"/>
    </contour>
    <contour>
      <point x="359" y="551" type="move" name="caron.alt"/>
    </contour>
    <contour>
      <point x="105" y="339" type="move" name="mid"/>
    </contour>
    <contour>
      <point x="117" y="275" type="curve"/>
      <point x="128" y="343"/>
      <point x="181" y="564"/>
      <point x="254" y="564" type="curve" smooth="yes"/>
      <point x="263" y="564"/>
      <point x="265" y="554"/>
      <point x="265" y="543" type="curve" smooth="yes"/>
      <point x="265" y="536"/>
      <point x="264" y="529"/>
      <point x="263" y="524" type="curve" smooth="yes"/>
      <point x="241" y="420"/>
      <point x="159" y="337"/>
    </contour>
    <contour>
      <point x="55" y="149" type="curve" smooth="yes"/>
      <point x="55" y="53"/>
      <point x="84" y="-14"/>
      <point x="168" y="-14" type="curve" smooth="yes"/>
      <point x="223" y="-14"/>
      <point x="271" y="19"/>
      <point x="317" y="75" type="curve" smooth="yes"/>
      <point x="323" y="82"/>
      <point x="325" y="88"/>
      <point x="325" y="94" type="curve" smooth="yes"/>
      <point x="325" y="106"/>
      <point x="316" y="114"/>
      <point x="307" y="114" type="curve" smooth="yes"/>
      <point x="303" y="114"/>
      <point x="299" y="112"/>
      <point x="296" y="109" type="curve" smooth="yes"/>
      <point x="263" y="68"/>
      <point x="222" y="30"/>
      <point x="178" y="30" type="curve" smooth="yes"/>
      <point x="123" y="30"/>
      <point x="111" y="84"/>
      <point x="111" y="141" type="curve" smooth="yes"/>
      <point x="111" y="163.345"/>
      <point x="112.834" y="186.149"/>
      <point x="115.26" y="206.617" type="curve"/>
      <point x="162.875" y="220.119"/>
      <point x="216.501" y="233.341"/>
      <point x="251" y="237" type="curve" smooth="yes"/>
      <point x="259" y="238"/>
      <point x="264" y="246"/>
      <point x="264" y="254" type="curve" smooth="yes"/>
      <point x="264" y="263"/>
      <point x="259" y="271"/>
      <point x="249" y="271" type="curve" smooth="yes"/>
      <point x="246" y="271" type="line" smooth="yes"/>
      <point x="217.134" y="268.277"/>
      <point x="176.995" y="259.917"/>
      <point x="130.592" y="246.245" type="curve"/>
      <point x="198.365" y="318.64"/>
      <point x="300.612" y="442.509"/>
      <point x="311" y="553" type="curve" smooth="yes"/>
      <point x="311" y="559" type="line" smooth="yes"/>
      <point x="311" y="588"/>
      <point x="296" y="612"/>
      <point x="265" y="612" type="curve" smooth="yes"/>
      <point x="264" y="612" type="line" smooth="yes"/>
      <point x="144.674" y="612"/>
      <point x="82.7625" y="372.159"/>
      <point x="60.442" y="223.082" type="curve"/>
      <point x="42.0499" y="216.381"/>
      <point x="23.1587" y="209.015"/>
      <point x="4" y="201" type="curve" smooth="yes"/>
      <point x="-1" y="199"/>
      <point x="-3" y="195"/>
      <point x="-3" y="190" type="curve" smooth="yes"/>
      <point x="-3" y="182"/>
      <point x="3" y="174"/>
      <point x="12" y="174" type="curve" smooth="yes"/>
      <point x="14" y="174"/>
      <point x="16" y="175"/>
      <point x="19" y="176" type="curve" smooth="yes"/>
      <point x="26.2049" y="178.882"/>
      <point x="39.5237" y="183.494"/>
      <point x="56.5185" y="188.937" type="curve"/>
      <point x="55.5062" y="175.118"/>
      <point x="55" y="161.806"/>
    </contour>
  </outline>
</glyph>
<glyph name="y" format="1">
  <advance width="346"/>
  <unicode hex="0079"/>
  <outline>
    <contour>
      <point x="242" y="333" type="move" name="top"/>
    </contour>
    <contour>
      <point x="74" y="-282" type="curve" smooth="yes"/>
      <point x="50" y="-282"/>
      <point x="34" y="-270"/>
      <point x="34" y="-244" type="curve" smooth="yes"/>
      <point x="34" y="-201"/>
      <point x="90" y="-132"/>
      <point x="200" y="-62" type="curve"/>
      <point x="189" y="-100"/>
      <point x="163" y="-282"/>
    </contour>
    <contour>
      <point x="-13" y="-254" type="curve" smooth="yes"/>
      <point x="-13" y="-292"/>
      <point x="19" y="-322"/>
      <point x="61" y="-322" type="curve" smooth="yes"/>
      <point x="204" y="-322"/>
      <point x="242" y="-141"/>
      <point x="265" y="-21" type="curve"/>
      <point x="334" y="37"/>
      <point x="373" y="60"/>
      <point x="420" y="76" type="curve" smooth="yes"/>
      <point x="428" y="77"/>
      <point x="431" y="84"/>
      <point x="431" y="92" type="curve" smooth="yes"/>
      <point x="431" y="104"/>
      <point x="423" y="119"/>
      <point x="410" y="119" type="curve" smooth="yes"/>
      <point x="406" y="119" type="line" smooth="yes"/>
      <point x="370" y="111"/>
      <point x="330" y="80"/>
      <point x="271" y="33" type="curve"/>
      <point x="271" y="33"/>
      <point x="286" y="105"/>
      <point x="294" y="146" type="curve" smooth="yes"/>
      <point x="315" y="247"/>
      <point x="331" y="273"/>
      <point x="331" y="317" type="curve" smooth="yes"/>
      <point x="331" y="323"/>
      <point x="325" y="326"/>
      <point x="314" y="326" type="curve" smooth="yes"/>
      <point x="286" y="326"/>
      <point x="272" y="309"/>
      <point x="266" y="286" type="curve" smooth="yes"/>
      <point x="234" y="162" type="line" smooth="yes"/>
      <point x="226" y="130"/>
      <point x="188" y="47"/>
      <point x="135" y="47" type="curve" smooth="yes"/>
      <point x="101" y="47"/>
      <point x="97" y="90"/>
      <point x="97" y="113" type="curve" smooth="yes"/>
      <point x="97" y="159"/>
      <point x="117" y="214"/>
      <point x="134" y="266" type="curve" smooth="yes"/>
      <point x="142" y="288"/>
      <point x="148" y="301"/>
      <point x="148" y="317" type="curve" smooth="yes"/>
      <point x="148" y="326"/>
      <point x="138" y="332"/>
      <point x="135" y="332" type="curve" smooth="yes"/>
      <point x="114" y="332"/>
      <point x="105" y="319"/>
      <point x="98" y="306" type="curve" smooth="yes"/>
      <point x="70" y="253"/>
      <point x="44" y="176"/>
      <point x="44" y="99" type="curve" smooth="yes"/>
      <point x="44" y="50"/>
      <point x="67" y="0"/>
      <point x="118" y="0" type="curve" smooth="yes"/>
      <point x="175" y="0"/>
      <point x="217" y="48"/>
      <point x="228" y="77" type="curve" smooth="yes"/>
      <point x="203" y="-8" type="line"/>
      <point x="149" y="-49"/>
      <point x="95" y="-82"/>
      <point x="53" y="-130" type="curve" smooth="yes"/>
      <point x="28" y="-158"/>
      <point x="-13" y="-208"/>
    </contour>
  </outline>
</glyph>
<glyph name="asciitilde" format="1">
  <advance width="295"/>
  <unicode hex="007E"/>
  <outline>
    <contour>
      <point x="249" y="449" type="curve" smooth="yes"/>
      <point x="286" y="449"/>
      <point x="326" y="496"/>
      <point x="326" y="532" type="curve" smooth="yes"/>
      <point x="326" y="544"/>
      <point x="317" y="550"/>
      <point x="305" y="550" type="curve" smooth="yes"/>
      <point x="273" y="550"/>
      <point x="264" y="510"/>
      <point x="243" y="492" type="curve"/>
      <point x="203" y="531" type="line" smooth="yes"/>
      <point x="182" y="552"/>
      <point x="167" y="579"/>
      <point x="134" y="579" type="curve" smooth="yes"/>
      <point x="97" y="579"/>
      <point x="57" y="532"/>
      <point x="57" y="496" type="curve" smooth="yes"/>
      <point x="57" y="484"/>
      <point x="65" y="478"/>
      <point x="78" y="478" type="curve" smooth="yes"/>
      <point x="109" y="478"/>
      <point x="122" y="519"/>
      <point x="140" y="537" type="curve"/>
      <point x="180" y="497" type="line" smooth="yes"/>
      <point x="201" y="477"/>
      <point x="216" y="449"/>
    </contour>
  </outline>
</glyph>
<glyph name="registered" format="1">
  <advance width="602"/>
  <unicode hex="00AE"/>
  <outline>
    <contour>
      <point x="389" y="364" type="curve" smooth="yes"/>
      <point x="389" y="315"/>
      <point x="342" y="305"/>
      <point x="299" y="305" type="curve" smooth="yes"/>
      <point x="289" y="305"/>
      <point x="280" y="305"/>
      <point x="271" y="306" type="curve"/>
      <point x="297" y="397" type="line"/>
      <point x="325" y="397" type="line" smooth="yes"/>
      <point x="366" y="397"/>
      <point x="389" y="392"/>
    </contour>
    <contour>
      <point x="566" y="316" type="curve" smooth="yes"/>
      <point x="566" y="455"/>
      <point x="471" y="532"/>
      <point x="321" y="532" type="curve" smooth="yes"/>
      <point x="158" y="532"/>
      <point x="33" y="416"/>
      <point x="33" y="248" type="curve" smooth="yes"/>
      <point x="33" y="105"/>
      <point x="140" y="20"/>
      <point x="292" y="20" type="curve" smooth="yes"/>
      <point x="420" y="20"/>
      <point x="566" y="119"/>
    </contour>
    <contour>
      <point x="328" y="494" type="curve" smooth="yes"/>
      <point x="450" y="494"/>
      <point x="518" y="430"/>
      <point x="518" y="316" type="curve" smooth="yes"/>
      <point x="518" y="178"/>
      <point x="434" y="59"/>
      <point x="291" y="59" type="curve" smooth="yes"/>
      <point x="168" y="59"/>
      <point x="77" y="123"/>
      <point x="77" y="248" type="curve" smooth="yes"/>
      <point x="77" y="375"/>
      <point x="160" y="494"/>
    </contour>
    <contour>
      <point x="348.779" y="277.285" type="line"/>
      <point x="398.906" y="289.193"/>
      <point x="429" y="321.022"/>
      <point x="429" y="369" type="curve" smooth="yes"/>
      <point x="429" y="416"/>
      <point x="389" y="431"/>
      <point x="342" y="431" type="curve" smooth="yes"/>
      <point x="324" y="431"/>
      <point x="287" y="428"/>
      <point x="264" y="427" type="curve"/>
      <point x="229" y="311" type="line"/>
      <point x="203" y="315" type="line" smooth="yes"/>
      <point x="196" y="317"/>
      <point x="194" y="311"/>
      <point x="194" y="304" type="curve" smooth="yes"/>
      <point x="194" y="291"/>
      <point x="209" y="283"/>
      <point x="221" y="279" type="curve"/>
      <point x="188" y="165" type="line" smooth="yes"/>
      <point x="187" y="162"/>
      <point x="187" y="158"/>
      <point x="187" y="155" type="curve" smooth="yes"/>
      <point x="187" y="140"/>
      <point x="196" y="130"/>
      <point x="207" y="130" type="curve" smooth="yes"/>
      <point x="216" y="130"/>
      <point x="226" y="138"/>
      <point x="230" y="155" type="curve" smooth="yes"/>
      <point x="263" y="273" type="line"/>
      <point x="279" y="272"/>
      <point x="296" y="271"/>
      <point x="310" y="271" type="curve"/>
      <point x="313" y="260"/>
      <point x="322" y="180"/>
      <point x="328" y="140" type="curve" smooth="yes"/>
      <point x="330" y="123"/>
      <point x="342" y="115"/>
      <point x="353" y="115" type="curve" smooth="yes"/>
      <point x="364" y="115"/>
      <point x="373" y="123"/>
      <point x="373" y="139" type="curve" smooth="yes"/>
      <point x="373" y="145" type="line" smooth="yes"/>
    </contour>
  </outline>
</glyph>
<glyph name="macron" format="1">
  <advance width="205"/>
  <unicode hex="00AF"/>
  <outline>
    <contour>
      <point x="118" y="333" type="move" name="_top"/>
    </contour>
    <contour>
      <point x="119" y="462" type="move" name="_mid"/>
    </contour>
    <contour>
      <point x="35" y="431" type="line" smooth="yes"/>
      <point x="204" y="447" type="line" smooth="yes"/>
      <point x="217" y="449"/>
      <point x="222" y="459"/>
      <point x="222" y="468" type="curve" smooth="yes"/>
      <point x="221" y="475"/>
      <point x="218" y="482"/>
      <point x="205" y="482" type="curve" smooth="yes"/>
      <point x="202" y="482" type="line" smooth="yes"/>
      <point x="35" y="471" type="line" smooth="yes"/>
      <point x="20" y="470"/>
      <point x="16" y="460"/>
      <point x="16" y="450" type="curve" smooth="yes"/>
      <point x="16" y="438"/>
      <point x="21" y="431"/>
      <point x="31" y="431" type="curve" smooth="yes"/>
    </contour>
  </outline>
</glyph>
<glyph name="paragraph" format="1">
  <advance width="447"/>
  <unicode hex="00B6"/>
  <outline>
    <contour>
      <point x="213" y="-82" type="curve" smooth="yes"/>
      <point x="322" y="541" type="line"/>
      <point x="355" y="541" type="line" smooth="yes"/>
      <point x="387" y="541"/>
      <point x="400" y="539"/>
      <point x="400" y="521" type="curve" smooth="yes"/>
      <point x="400" y="518"/>
      <point x="400" y="515"/>
      <point x="399" y="511" type="curve" smooth="yes"/>
      <point x="301" y="-81" type="line" smooth="yes"/>
      <point x="301" y="-87" type="line" smooth="yes"/>
      <point x="301" y="-100"/>
      <point x="309" y="-106"/>
      <point x="319" y="-106" type="curve" smooth="yes"/>
      <point x="332" y="-106"/>
      <point x="348" y="-95"/>
      <point x="352" y="-74" type="curve" smooth="yes"/>
      <point x="436" y="418" type="line" smooth="yes"/>
      <point x="442" y="455"/>
      <point x="454" y="489"/>
      <point x="454" y="519" type="curve" smooth="yes"/>
      <point x="454" y="584"/>
      <point x="375" y="585"/>
      <point x="294" y="585" type="curve" smooth="yes"/>
      <point x="187" y="585"/>
      <point x="77" y="561"/>
      <point x="77" y="460" type="curve" smooth="yes"/>
      <point x="77" y="377"/>
      <point x="140" y="344"/>
      <point x="232" y="344" type="curve"/>
      <point x="166" y="-75" type="line" smooth="yes"/>
      <point x="163" y="-91"/>
      <point x="176" y="-98"/>
      <point x="188" y="-98" type="curve" smooth="yes"/>
      <point x="199" y="-98"/>
      <point x="211" y="-92"/>
    </contour>
  </outline>
</glyph>
<glyph name="ordmasculine" format="1">
  <advance width="273"/>
  <unicode hex="00BA"/>
  <outline>
    <contour>
      <point x="121" y="284" type="curve" smooth="yes"/>
      <point x="196" y="284"/>
      <point x="237" y="365"/>
      <point x="237" y="445" type="curve" smooth="yes"/>
      <point x="237" y="500"/>
      <point x="215" y="547"/>
      <point x="165" y="547" type="curve" smooth="yes"/>
      <point x="88" y="547"/>
      <point x="34" y="482"/>
      <point x="34" y="403" type="curve" smooth="yes"/>
      <point x="34" y="338"/>
      <point x="61" y="284"/>
    </contour>
    <contour>
      <point x="131" y="320" type="curve" smooth="yes"/>
      <point x="90" y="320"/>
      <point x="78" y="355"/>
      <point x="78" y="391" type="curve" smooth="yes"/>
      <point x="78" y="435"/>
      <point x="99" y="511"/>
      <point x="148" y="511" type="curve" smooth="yes"/>
      <point x="185" y="511"/>
      <point x="193" y="467"/>
      <point x="193" y="437" type="curve" smooth="yes"/>
      <point x="193" y="396"/>
      <point x="175" y="320"/>
    </contour>
  </outline>
</glyph>
<glyph name="AE" format="1">
  <advance width="1162"/>
  <unicode hex="00C6"/>
  <outline>
    <contour>
      <point x="905" y="-83" type="move" name="bot"/>
    </contour>
    <contour>
      <point x="658" y="658" type="move" name="top"/>
    </contour>
    <contour>
      <point x="925" y="-87" type="move" name="ogonek"/>
    </contour>
    <contour>
      <point x="131" y="198" type="curve" smooth="yes"/>
      <point x="131" y="432"/>
      <point x="309" y="617"/>
      <point x="515" y="617" type="curve" smooth="yes"/>
      <point x="548" y="617"/>
      <point x="582" y="612"/>
      <point x="616" y="602" type="curve"/>
      <point x="501" y="214" type="line" smooth="yes"/>
      <point x="471" y="111"/>
      <point x="415" y="3"/>
      <point x="290" y="3" type="curve" smooth="yes"/>
      <point x="173" y="3"/>
      <point x="131" y="98"/>
    </contour>
    <contour>
      <point x="1007" y="525" type="curve" smooth="yes"/>
      <point x="1007" y="616"/>
      <point x="901" y="662"/>
      <point x="790" y="662" type="curve" smooth="yes"/>
      <point x="754" y="662"/>
      <point x="687" y="647"/>
      <point x="653" y="636" type="curve"/>
      <point x="607" y="655"/>
      <point x="558" y="665"/>
      <point x="507" y="665" type="curve" smooth="yes"/>
      <point x="294" y="665"/>
      <point x="65" y="498"/>
      <point x="65" y="197" type="curve" smooth="yes"/>
      <point x="65" y="86"/>
      <point x="114" y="-46"/>
      <point x="277" y="-46" type="curve" smooth="yes"/>
      <point x="369" y="-46"/>
      <point x="428" y="-10"/>
      <point x="469" y="45" type="curve"/>
      <point x="469" y="40"/>
      <point x="468" y="35"/>
      <point x="468" y="30" type="curve" smooth="yes"/>
      <point x="468" y="-67"/>
      <point x="555" y="-116"/>
      <point x="660" y="-116" type="curve" smooth="yes"/>
      <point x="789" y="-116"/>
      <point x="941" y="-52"/>
      <point x="1012" y="57" type="curve" smooth="yes"/>
      <point x="1016" y="63"/>
      <point x="1019" y="70"/>
      <point x="1019" y="76" type="curve" smooth="yes"/>
      <point x="1019" y="90"/>
      <point x="1009" y="98"/>
      <point x="999" y="98" type="curve" smooth="yes"/>
      <point x="993" y="98"/>
      <point x="984" y="95"/>
      <point x="978" y="84" type="curve" smooth="yes"/>
      <point x="919" y="-3"/>
      <point x="776" y="-71"/>
      <point x="668" y="-71" type="curve" smooth="yes"/>
      <point x="595" y="-71"/>
      <point x="514" y="-38"/>
      <point x="514" y="43" type="curve" smooth="yes"/>
      <point x="514" y="57"/>
      <point x="517" y="73"/>
      <point x="522" y="90" type="curve" smooth="yes"/>
      <point x="572" y="250" type="line"/>
      <point x="612" y="249"/>
      <point x="689" y="245"/>
      <point x="750" y="245" type="curve" smooth="yes"/>
      <point x="777" y="245"/>
      <point x="790" y="254"/>
      <point x="790" y="271" type="curve" smooth="yes"/>
      <point x="790" y="283"/>
      <point x="783" y="296"/>
      <point x="771" y="296" type="curve" smooth="yes"/>
      <point x="744" y="297"/>
      <point x="616" y="296"/>
      <point x="585" y="300" type="curve"/>
      <point x="641" y="506" type="line" smooth="yes"/>
      <point x="660" y="578"/>
      <point x="695" y="616"/>
      <point x="797" y="616" type="curve" smooth="yes"/>
      <point x="854" y="616"/>
      <point x="911" y="598"/>
      <point x="947" y="562" type="curve"/>
      <point x="928" y="546"/>
      <point x="915" y="528"/>
      <point x="915" y="505" type="curve" smooth="yes"/>
      <point x="915" y="478"/>
      <point x="931" y="462"/>
      <point x="958" y="462" type="curve" smooth="yes"/>
      <point x="978" y="462"/>
      <point x="1007" y="481"/>
    </contour>
  </outline>
</glyph>
<glyph name="lslash" format="1">
  <advance width="226"/>
  <unicode hex="0142"/>
  <outline>
    <component base="l"/>
    <contour>
      <point x="172" y="161" type="line" smooth="yes"/>
      <point x="181" y="165"/>
      <point x="185" y="170"/>
      <point x="185" y="179" type="curve" smooth="yes"/>
      <point x="185" y="189"/>
      <point x="178" y="197"/>
      <point x="167" y="197" type="curve" smooth="yes"/>
      <point x="164" y="197"/>
      <point x="160" y="197"/>
      <point x="157" y="195" type="curve" smooth="yes"/>
      <point x="-2" y="116" type="line" smooth="yes"/>
      <point x="-10" y="112"/>
      <point x="-14" y="105"/>
      <point x="-14" y="99" type="curve" smooth="yes"/>
      <point x="-14" y="89"/>
      <point x="-6" y="81"/>
      <point x="4" y="81" type="curve" smooth="yes"/>
      <point x="5" y="81"/>
      <point x="9" y="81"/>
      <point x="14" y="83" type="curve" smooth="yes"/>
    </contour>
  </outline>
</glyph>
<glyph name="oe" format="1">
  <advance width="457"/>
  <unicode hex="0153"/>
  <outline>
    <contour>
      <point x="401" y="0" type="move" name="ogonek"/>
    </contour>
    <contour>
      <point x="270" y="148" type="curve"/>
      <point x="270" y="208"/>
      <point x="318" y="289"/>
      <point x="379" y="289" type="curve" smooth="yes"/>
      <point x="397" y="289"/>
      <point x="417" y="276"/>
      <point x="417" y="249" type="curve" smooth="yes"/>
      <point x="417" y="192"/>
      <point x="326" y="152"/>
    </contour>
    <contour>
      <point x="161" y="294" type="curve" smooth="yes"/>
      <point x="201" y="294"/>
      <point x="223" y="261"/>
      <point x="223" y="188" type="curve" smooth="yes"/>
      <point x="223" y="131"/>
      <point x="215" y="33"/>
      <point x="143" y="33" type="curve" smooth="yes"/>
      <point x="86" y="33"/>
      <point x="69" y="98"/>
      <point x="69" y="142" type="curve" smooth="yes"/>
      <point x="69" y="235"/>
      <point x="113" y="294"/>
    </contour>
    <contour>
      <point x="241" y="70" type="curve"/>
      <point x="262" y="22"/>
      <point x="297" y="-6"/>
      <point x="351" y="-6" type="curve" smooth="yes"/>
      <point x="437" y="-6"/>
      <point x="517" y="51"/>
      <point x="546" y="91" type="curve" smooth="yes"/>
      <point x="550" y="95"/>
      <point x="551" y="100"/>
      <point x="551" y="104" type="curve" smooth="yes"/>
      <point x="551" y="114"/>
      <point x="541" y="122"/>
      <point x="535" y="122" type="curve" smooth="yes"/>
      <point x="533" y="122"/>
      <point x="532" y="122"/>
      <point x="531" y="121" type="curve" smooth="yes"/>
      <point x="475" y="66"/>
      <point x="411" y="36"/>
      <point x="360" y="36" type="curve" smooth="yes"/>
      <point x="314" y="36"/>
      <point x="279" y="60"/>
      <point x="271" y="109" type="curve"/>
      <point x="389" y="125"/>
      <point x="462" y="184"/>
      <point x="462" y="255" type="curve" smooth="yes"/>
      <point x="462" y="302"/>
      <point x="422" y="331"/>
      <point x="375" y="331" type="curve" smooth="yes"/>
      <point x="324" y="331"/>
      <point x="280" y="300"/>
      <point x="252" y="255" type="curve"/>
      <point x="242" y="301"/>
      <point x="210" y="331"/>
      <point x="165" y="331" type="curve" smooth="yes"/>
      <point x="85" y="331"/>
      <point x="23" y="247"/>
      <point x="23" y="146" type="curve" smooth="yes"/>
      <point x="23" y="67"/>
      <point x="61" y="-4"/>
      <point x="140" y="-4" type="curve" smooth="yes"/>
      <point x="190" y="-4"/>
      <point x="229" y="28"/>
    </contour>
  </outline>
</glyph>
<glyph name="caron" format="1">
  <advance width="295"/>
  <unicode hex="02C7"/>
  <outline>
    <contour>
      <point x="134" y="333" type="move" name="_top"/>
    </contour>
    <contour>
      <point x="308" y="612" type="curve" smooth="yes"/>
      <point x="308" y="619"/>
      <point x="301" y="625"/>
      <point x="289" y="625" type="curve" smooth="yes"/>
      <point x="276" y="625"/>
      <point x="267" y="615"/>
      <point x="252" y="593" type="curve" smooth="yes"/>
      <point x="158" y="454" type="line"/>
      <point x="139" y="574"/>
      <point x="148" y="625"/>
      <point x="126" y="625" type="curve" smooth="yes"/>
      <point x="116" y="625"/>
      <point x="105" y="621"/>
      <point x="105" y="597" type="curve" smooth="yes"/>
      <point x="105" y="588" type="line" smooth="yes"/>
      <point x="117" y="493" type="line" smooth="yes"/>
      <point x="124" y="438"/>
      <point x="122" y="415"/>
      <point x="152" y="415" type="curve" smooth="yes"/>
      <point x="182" y="415"/>
      <point x="193" y="444"/>
      <point x="216" y="476" type="curve" smooth="yes"/>
      <point x="301" y="595" type="line" smooth="yes"/>
      <point x="304" y="600"/>
      <point x="308" y="606"/>
    </contour>
  </outline>
</glyph>
<glyph name="ogonek" format="1">
  <advance width="183"/>
  <unicode hex="02DB"/>
  <outline>
    <contour>
      <point x="116" y="0" type="move" name="_ogonek"/>
    </contour>
    <contour>
      <point x="51" y="-94" type="curve" smooth="yes"/>
      <point x="51" y="-121"/>
      <point x="66" y="-146"/>
      <point x="112" y="-146" type="curve" smooth="yes"/>
      <point x="115" y="-146" type="line" smooth="yes"/>
      <point x="143" y="-146"/>
      <point x="166" y="-133"/>
      <point x="183" y="-114" type="curve" smooth="yes"/>
      <point x="187" y="-110"/>
      <point x="189" y="-105"/>
      <point x="189" y="-98" type="curve" smooth="yes"/>
      <point x="189" y="-89"/>
      <point x="183" y="-75"/>
      <point x="176" y="-82" type="curve" smooth="yes"/>
      <point x="161" y="-95"/>
      <point x="145" y="-108"/>
      <point x="121" y="-108" type="curve" smooth="yes"/>
      <point x="118" y="-108" type="line" smooth="yes"/>
      <point x="103" y="-108"/>
      <point x="94" y="-97"/>
      <point x="94" y="-82" type="curve" smooth="yes"/>
      <point x="94" y="-53"/>
      <point x="113" y="-20"/>
      <point x="135" y="3" type="curve"/>
      <point x="100" y="3" type="line"/>
      <point x="85" y="-17"/>
      <point x="51" y="-59"/>
    </contour>
  </outline>
</glyph>
<glyph name="tilde" format="1">
  <advance width="328"/>
  <unicode hex="02DC"/>
  <outline>
    <contour>
      <point x="134" y="333" type="move" name="_top"/>
    </contour>
    <contour>
      <point x="221" y="403" type="curve" smooth="yes"/>
      <point x="253" y="403"/>
      <point x="291" y="446"/>
      <point x="291" y="479" type="curve" smooth="yes"/>
      <point x="291" y="486"/>
      <point x="286" y="490"/>
      <point x="276" y="490" type="curve" smooth="yes"/>
      <point x="248" y="490"/>
      <point x="242" y="450"/>
      <point x="215" y="430" type="curve"/>
      <point x="194" y="447"/>
      <point x="177" y="461"/>
      <point x="165" y="471" type="curve" smooth="yes"/>
      <point x="144" y="487"/>
      <point x="130" y="501"/>
      <point x="106" y="501" type="curve" smooth="yes"/>
      <point x="73" y="501"/>
      <point x="36" y="458"/>
      <point x="36" y="426" type="curve" smooth="yes"/>
      <point x="36" y="418"/>
      <point x="41" y="414"/>
      <point x="50" y="414" type="curve" smooth="yes"/>
      <point x="78" y="414"/>
      <point x="89" y="457"/>
      <point x="111" y="474" type="curve"/>
      <point x="133" y="458"/>
      <point x="149" y="444"/>
      <point x="162" y="433" type="curve" smooth="yes"/>
      <point x="183" y="417"/>
      <point x="196" y="403"/>
    </contour>
  </outline>
</glyph>
<glyph name="hungarumlaut" format="1">
  <advance width="350"/>
  <unicode hex="02DD"/>
  <outline>
    <contour>
      <point x="94" y="333" type="move" name="_top"/>
    </contour>
    <contour>
      <point x="185" y="478" type="curve" smooth="yes"/>
      <point x="221" y="519"/>
      <point x="263" y="558"/>
      <point x="297" y="598" type="curve" smooth="yes"/>
      <point x="305" y="607"/>
      <point x="308" y="615"/>
      <point x="308" y="622" type="curve" smooth="yes"/>
      <point x="308" y="640"/>
      <point x="288" y="651"/>
      <point x="271" y="651" type="curve" smooth="yes"/>
      <point x="262" y="651"/>
      <point x="254" y="648"/>
      <point x="250" y="641" type="curve" smooth="yes"/>
      <point x="218" y="581"/>
      <point x="166" y="532"/>
      <point x="166" y="479" type="curve" smooth="yes"/>
      <point x="166" y="472"/>
      <point x="168" y="469"/>
      <point x="171" y="469" type="curve" smooth="yes"/>
      <point x="174" y="469"/>
      <point x="179" y="472"/>
    </contour>
    <contour>
      <point x="71" y="478" type="curve" smooth="yes"/>
      <point x="107" y="522"/>
      <point x="176" y="571"/>
      <point x="176" y="623" type="curve" smooth="yes"/>
      <point x="176" y="641"/>
      <point x="156" y="654"/>
      <point x="140" y="654" type="curve" smooth="yes"/>
      <point x="131" y="654"/>
      <point x="123" y="651"/>
      <point x="120" y="642" type="curve" smooth="yes"/>
      <point x="96" y="582"/>
      <point x="52" y="528"/>
      <point x="52" y="479" type="curve" smooth="yes"/>
      <point x="52" y="472"/>
      <point x="55" y="469"/>
      <point x="58" y="469" type="curve" smooth="yes"/>
      <point x="62" y="469"/>
      <point x="66" y="472"/>
    </contour>
  </outline>
</glyph>
<glyph name="uni0311" format="1">
  <advance width="205"/>
  <unicode hex="0311"/>
  <outline>
    <contour>
      <point x="94" y="333" type="move" name="_top"/>
    </contour>
    <contour>
      <point x="207" y="462" type="curve" smooth="yes"/>
      <point x="207" y="512"/>
      <point x="174" y="543"/>
      <point x="122" y="543" type="curve" smooth="yes"/>
      <point x="71" y="543"/>
      <point x="18" y="512"/>
      <point x="18" y="451" type="curve" smooth="yes"/>
      <point x="18" y="444"/>
      <point x="25" y="441"/>
      <point x="33" y="441" type="curve" smooth="yes"/>
      <point x="42" y="441"/>
      <point x="52" y="445"/>
      <point x="53" y="453" type="curve" smooth="yes"/>
      <point x="58" y="492"/>
      <point x="90" y="511"/>
      <point x="119" y="511" type="curve" smooth="yes"/>
      <point x="145" y="511"/>
      <point x="170" y="494"/>
      <point x="170" y="464" type="curve" smooth="yes"/>
      <point x="170" y="460"/>
      <point x="169" y="456"/>
      <point x="169" y="452" type="curve" smooth="yes"/>
      <point x="169" y="441"/>
      <point x="178" y="436"/>
      <point x="187" y="436" type="curve" smooth="yes"/>
      <point x="202" y="436"/>
      <point x="207" y="446"/>
    </contour>
  </outline>
</glyph>
<glyph name="Omega" format="1">
  <advance width="837"/>
  <unicode hex="03A9"/>
  <outline>
    <contour>
      <point x="761" y="41" type="curve" smooth="yes"/>
      <point x="735" y="41"/>
      <point x="705" y="36"/>
      <point x="665" y="36" type="curve" smooth="yes"/>
      <point x="652" y="36"/>
      <point x="638" y="36"/>
      <point x="623" y="37" type="curve"/>
      <point x="747" y="102"/>
      <point x="812" y="236"/>
      <point x="812" y="366" type="curve" smooth="yes"/>
      <point x="812" y="530"/>
      <point x="710" y="686"/>
      <point x="498" y="686" type="curve" smooth="yes"/>
      <point x="260" y="686"/>
      <point x="130" y="488"/>
      <point x="130" y="305" type="curve" smooth="yes"/>
      <point x="130" y="201"/>
      <point x="172" y="102"/>
      <point x="260" y="45" type="curve"/>
      <point x="221" y="46"/>
      <point x="191" y="48"/>
      <point x="167" y="48" type="curve" smooth="yes"/>
      <point x="157" y="48"/>
      <point x="147" y="48"/>
      <point x="139" y="47" type="curve" smooth="yes"/>
      <point x="128" y="47"/>
      <point x="123" y="38"/>
      <point x="123" y="28" type="curve" smooth="yes"/>
      <point x="123" y="13"/>
      <point x="137" y="-5"/>
      <point x="157" y="-6" type="curve" smooth="yes"/>
      <point x="169" y="-6"/>
      <point x="180" y="-7"/>
      <point x="192" y="-7" type="curve" smooth="yes"/>
      <point x="241" y="-7"/>
      <point x="297" y="-4"/>
      <point x="410" y="-2" type="curve"/>
      <point x="412" y="40" type="line"/>
      <point x="259" y="54"/>
      <point x="190" y="169"/>
      <point x="190" y="293" type="curve" smooth="yes"/>
      <point x="190" y="453"/>
      <point x="304" y="628"/>
      <point x="496" y="628" type="curve" smooth="yes"/>
      <point x="665" y="628"/>
      <point x="751" y="492"/>
      <point x="751" y="350" type="curve" smooth="yes"/>
      <point x="751" y="206"/>
      <point x="662" y="57"/>
      <point x="483" y="40" type="curve"/>
      <point x="481" y="-2" type="line"/>
      <point x="553" y="-12"/>
      <point x="614" y="-17"/>
      <point x="666" y="-17" type="curve" smooth="yes"/>
      <point x="675" y="-17" type="line" smooth="yes"/>
      <point x="720" y="-17"/>
      <point x="774" y="-16"/>
      <point x="774" y="24" type="curve" smooth="yes"/>
      <point x="774" y="33"/>
      <point x="770" y="41"/>
    </contour>
  </outline>
</glyph>
<glyph name="mu" format="1">
  <advance width="347"/>
  <unicode hex="03BC"/>
  <outline>
    <contour>
      <point x="226" y="66" type="curve"/>
      <point x="226" y="31"/>
      <point x="238" y="-4"/>
      <point x="282" y="-4" type="curve" smooth="yes"/>
      <point x="333" y="-4"/>
      <point x="396" y="49"/>
      <point x="420" y="90" type="curve" smooth="yes"/>
      <point x="423" y="94"/>
      <point x="424" y="98"/>
      <point x="424" y="102" type="curve" smooth="yes"/>
      <point x="424" y="110"/>
      <point x="418" y="117"/>
      <point x="406" y="117" type="curve" smooth="yes"/>
      <point x="400" y="117"/>
      <point x="392" y="115"/>
      <point x="383" y="103" type="curve" smooth="yes"/>
      <point x="370" y="85"/>
      <point x="325" y="35"/>
      <point x="290" y="35" type="curve" smooth="yes"/>
      <point x="277" y="35"/>
      <point x="266" y="49"/>
      <point x="266" y="81" type="curve" smooth="yes"/>
      <point x="266" y="86"/>
      <point x="266" y="91"/>
      <point x="267" y="97" type="curve" smooth="yes"/>
      <point x="275" y="182"/>
      <point x="311" y="278"/>
      <point x="319" y="305" type="curve" smooth="yes"/>
      <point x="320" y="306"/>
      <point x="320" y="308"/>
      <point x="320" y="309" type="curve" smooth="yes"/>
      <point x="320" y="317"/>
      <point x="310" y="326"/>
      <point x="297" y="326" type="curve" smooth="yes"/>
      <point x="283" y="326"/>
      <point x="271" y="319"/>
      <point x="262" y="284" type="curve" smooth="yes"/>
      <point x="229" y="159" type="line" smooth="yes"/>
      <point x="204" y="65"/>
      <point x="165" y="38"/>
      <point x="126" y="37" type="curve" smooth="yes"/>
      <point x="97" y="37"/>
      <point x="82" y="58"/>
      <point x="82" y="93" type="curve" smooth="yes"/>
      <point x="82" y="103" type="line" smooth="yes"/>
      <point x="86" y="172"/>
      <point x="105" y="240"/>
      <point x="134" y="313" type="curve" smooth="yes"/>
      <point x="134" y="322"/>
      <point x="126" y="328"/>
      <point x="111" y="328" type="curve" smooth="yes"/>
      <point x="97" y="328"/>
      <point x="89" y="327"/>
      <point x="84" y="316" type="curve" smooth="yes"/>
      <point x="66" y="277"/>
      <point x="54" y="235"/>
      <point x="45" y="194" type="curve" smooth="yes"/>
      <point x="-9" y="-55" type="line" smooth="yes"/>
      <point x="-12" y="-68"/>
      <point x="1" y="-81"/>
      <point x="15" y="-81" type="curve" smooth="yes"/>
      <point x="25" y="-81"/>
      <point x="36" y="-73"/>
      <point x="41" y="-52" type="curve" smooth="yes"/>
      <point x="56" y="18" type="line"/>
      <point x="70" y="3"/>
      <point x="92" y="-5"/>
      <point x="120" y="-5" type="curve" smooth="yes"/>
      <point x="170" y="-5"/>
      <point x="202" y="23"/>
    </contour>
  </outline>
</glyph>
<glyph name="quoteleft" format="1">
  <advance width="240"/>
  <unicode hex="2018"/>
  <outline>
    <contour>
      <point x="99" y="418" type="curve" smooth="yes"/>
      <point x="114" y="418"/>
      <point x="126" y="429"/>
      <point x="128" y="450" type="curve" smooth="yes"/>
      <point x="146" y="605" type="line" smooth="yes"/>
      <point x="146" y="615"/>
      <point x="143" y="620"/>
      <point x="140" y="620" type="curve" smooth="yes"/>
      <point x="130" y="620"/>
      <point x="122" y="611"/>
      <point x="118" y="598" type="curve" smooth="yes"/>
      <point x="102" y="551"/>
      <point x="72" y="491"/>
      <point x="72" y="442" type="curve" smooth="yes"/>
      <point x="72" y="425"/>
      <point x="82" y="418"/>
    </contour>
  </outline>
</glyph>
<glyph name="perthousand" format="1">
  <advance width="1083"/>
  <unicode hex="2030"/>
  <outline>
    <contour>
      <point x="875" y="31" type="curve" smooth="yes"/>
      <point x="820" y="31"/>
      <point x="796" y="85"/>
      <point x="796" y="144" type="curve" smooth="yes"/>
      <point x="796" y="214"/>
      <point x="831" y="289"/>
      <point x="899" y="289" type="curve" smooth="yes"/>
      <point x="951" y="289"/>
      <point x="974" y="236"/>
      <point x="974" y="177" type="curve" smooth="yes"/>
      <point x="974" y="107"/>
      <point x="940" y="31"/>
    </contour>
    <contour>
      <point x="563" y="33" type="curve" smooth="yes"/>
      <point x="507" y="33"/>
      <point x="484" y="87"/>
      <point x="484" y="145" type="curve" smooth="yes"/>
      <point x="484" y="214"/>
      <point x="520" y="290"/>
      <point x="586" y="290" type="curve" smooth="yes"/>
      <point x="639" y="290"/>
      <point x="662" y="239"/>
      <point x="662" y="180" type="curve" smooth="yes"/>
      <point x="662" y="110"/>
      <point x="627" y="33"/>
    </contour>
    <contour>
      <point x="191" y="295" type="curve" smooth="yes"/>
      <point x="142" y="295"/>
      <point x="117" y="347"/>
      <point x="117" y="404" type="curve" smooth="yes"/>
      <point x="117" y="473"/>
      <point x="152" y="549"/>
      <point x="221" y="549" type="curve" smooth="yes"/>
      <point x="272" y="549"/>
      <point x="297" y="494"/>
      <point x="297" y="435" type="curve" smooth="yes"/>
      <point x="297" y="367"/>
      <point x="263" y="295"/>
    </contour>
    <contour>
      <point x="752" y="136" type="curve" smooth="yes"/>
      <point x="752" y="56"/>
      <point x="798" y="-6"/>
      <point x="874" y="-6" type="curve" smooth="yes"/>
      <point x="955" y="-6"/>
      <point x="1017" y="67"/>
      <point x="1017" y="184" type="curve" smooth="yes"/>
      <point x="1017" y="260"/>
      <point x="976" y="328"/>
      <point x="900" y="328" type="curve" smooth="yes"/>
      <point x="807" y="328"/>
      <point x="752" y="239"/>
    </contour>
    <contour>
      <point x="439" y="141" type="curve" smooth="yes"/>
      <point x="439" y="60"/>
      <point x="484" y="-4"/>
      <point x="564" y="-4" type="curve" smooth="yes"/>
      <point x="642" y="-4"/>
      <point x="705" y="69"/>
      <point x="705" y="184" type="curve" smooth="yes"/>
      <point x="705" y="262"/>
      <point x="664" y="330"/>
      <point x="585" y="330" type="curve" smooth="yes"/>
      <point x="496" y="330"/>
      <point x="439" y="242"/>
    </contour>
    <contour>
      <point x="269" y="1" type="curve" smooth="yes"/>
      <point x="344" y="150"/>
      <point x="496" y="452"/>
      <point x="544" y="554" type="curve" smooth="yes"/>
      <point x="545" y="557"/>
      <point x="546" y="560"/>
      <point x="546" y="563" type="curve" smooth="yes"/>
      <point x="546" y="574"/>
      <point x="537" y="585"/>
      <point x="527" y="585" type="curve" smooth="yes"/>
      <point x="521" y="585"/>
      <point x="514" y="581"/>
      <point x="509" y="571" type="curve" smooth="yes"/>
      <point x="459" y="472"/>
      <point x="308" y="167"/>
      <point x="235" y="26" type="curve" smooth="yes"/>
      <point x="229" y="15"/>
      <point x="227" y="6"/>
      <point x="227" y="-1" type="curve" smooth="yes"/>
      <point x="227" y="-13"/>
      <point x="234" y="-20"/>
      <point x="242" y="-20" type="curve" smooth="yes"/>
      <point x="251" y="-20"/>
      <point x="262" y="-13"/>
    </contour>
    <contour>
      <point x="72" y="395" type="curve" smooth="yes"/>
      <point x="72" y="313"/>
      <point x="111" y="257"/>
      <point x="193" y="257" type="curve" smooth="yes"/>
      <point x="276" y="257"/>
      <point x="339" y="321"/>
      <point x="339" y="449" type="curve" smooth="yes"/>
      <point x="339" y="526"/>
      <point x="297" y="591"/>
      <point x="223" y="591" type="curve" smooth="yes"/>
      <point x="127" y="591"/>
      <point x="72" y="500"/>
    </contour>
  </outline>
</glyph>
<glyph name="fraction" format="1">
  <advance width="217"/>
  <unicode hex="2044"/>
  <outline>
    <contour>
      <point x="29" y="5" type="curve" smooth="yes"/>
      <point x="279" y="564" type="line" smooth="yes"/>
      <point x="281" y="569"/>
      <point x="282" y="574"/>
      <point x="282" y="579" type="curve" smooth="yes"/>
      <point x="282" y="594"/>
      <point x="272" y="605"/>
      <point x="260" y="605" type="curve" smooth="yes"/>
      <point x="251" y="605"/>
      <point x="240" y="598"/>
      <point x="232" y="580" type="curve" smooth="yes"/>
      <point x="-20" y="28" type="line" smooth="yes"/>
      <point x="-24" y="20"/>
      <point x="-25" y="13"/>
      <point x="-25" y="7" type="curve" smooth="yes"/>
      <point x="-25" y="-9"/>
      <point x="-14" y="-17"/>
      <point x="-2" y="-17" type="curve" smooth="yes"/>
      <point x="10" y="-17"/>
      <point x="22" y="-10"/>
    </contour>
  </outline>
</glyph>
<glyph name="Euro" format="1">
  <advance width="634"/>
  <unicode hex="20AC"/>
  <outline>
    <contour>
      <point x="72" y="226" type="line" smooth="yes"/>
      <point x="61" y="226"/>
      <point x="51" y="222"/>
      <point x="51" y="206" type="curve" smooth="yes"/>
      <point x="51" y="193"/>
      <point x="60" y="189"/>
      <point x="69" y="189" type="curve" smooth="yes"/>
      <point x="106" y="189" type="line"/>
      <point x="106" y="165" type="line" smooth="yes"/>
      <point x="106" y="31"/>
      <point x="168" y="-58"/>
      <point x="293" y="-58" type="curve" smooth="yes"/>
      <point x="396" y="-58"/>
      <point x="474" y="-15"/>
      <point x="535" y="38" type="curve" smooth="yes"/>
      <point x="546" y="48"/>
      <point x="550" y="57"/>
      <point x="550" y="64" type="curve" smooth="yes"/>
      <point x="550" y="77"/>
      <point x="540" y="85"/>
      <point x="530" y="85" type="curve" smooth="yes"/>
      <point x="524" y="85"/>
      <point x="519" y="83"/>
      <point x="513" y="79" type="curve" smooth="yes"/>
      <point x="465" y="39"/>
      <point x="397" y="-8"/>
      <point x="304" y="-8" type="curve" smooth="yes"/>
      <point x="200" y="-8"/>
      <point x="167" y="55"/>
      <point x="167" y="161" type="curve" smooth="yes"/>
      <point x="167" y="189" type="line" smooth="yes"/>
      <point x="317" y="189" type="line" smooth="yes"/>
      <point x="336" y="189"/>
      <point x="342" y="195"/>
      <point x="342" y="215" type="curve" smooth="yes"/>
      <point x="342" y="224"/>
      <point x="339" y="226"/>
      <point x="329" y="226" type="curve" smooth="yes"/>
      <point x="174" y="226" type="line"/>
      <point x="178" y="250"/>
      <point x="184" y="272"/>
      <point x="193" y="299" type="curve"/>
      <point x="339" y="299" type="line" smooth="yes"/>
      <point x="358" y="299"/>
      <point x="364" y="305"/>
      <point x="364" y="324" type="curve" smooth="yes"/>
      <point x="364" y="333"/>
      <point x="361" y="335"/>
      <point x="351" y="335" type="curve" smooth="yes"/>
      <point x="207" y="335" type="line"/>
      <point x="264" y="458"/>
      <point x="344" y="564"/>
      <point x="443" y="564" type="curve" smooth="yes"/>
      <point x="495" y="564"/>
      <point x="538" y="543"/>
      <point x="538" y="489" type="curve" smooth="yes"/>
      <point x="538" y="447"/>
      <point x="517" y="421"/>
      <point x="517" y="393" type="curve" smooth="yes"/>
      <point x="517" y="386"/>
      <point x="528" y="379"/>
      <point x="537" y="379" type="curve" smooth="yes"/>
      <point x="542" y="379"/>
      <point x="546" y="381"/>
      <point x="549" y="385" type="curve" smooth="yes"/>
      <point x="564" y="407"/>
      <point x="582" y="450"/>
      <point x="582" y="494" type="curve" smooth="yes"/>
      <point x="582" y="576"/>
      <point x="532" y="611"/>
      <point x="447" y="611" type="curve" smooth="yes"/>
      <point x="328" y="611"/>
      <point x="213" y="496"/>
      <point x="145" y="335" type="curve"/>
      <point x="96" y="335" type="line" smooth="yes"/>
      <point x="82" y="335"/>
      <point x="74" y="329"/>
      <point x="74" y="314" type="curve" smooth="yes"/>
      <point x="74" y="302"/>
      <point x="83" y="299"/>
      <point x="95" y="299" type="curve" smooth="yes"/>
      <point x="132" y="299" type="line"/>
      <point x="124" y="276"/>
      <point x="117" y="255"/>
      <point x="113" y="226" type="curve"/>
    </contour>
  </outline>
</glyph>
<glyph name="partialdiff" format="1">
  <advance width="354"/>
  <unicode hex="2202"/>
  <outline>
    <contour>
      <point x="182" y="43" type="curve" smooth="yes"/>
      <point x="176" y="42"/>
      <point x="170" y="42"/>
      <point x="165" y="42" type="curve" smooth="yes"/>
      <point x="107" y="42"/>
      <point x="74" y="80"/>
      <point x="74" y="141" type="curve" smooth="yes"/>
      <point x="74" y="243"/>
      <point x="149" y="296"/>
      <point x="223" y="297" type="curve" smooth="yes"/>
      <point x="250" y="297"/>
      <point x="278" y="290"/>
      <point x="301" y="276" type="curve"/>
      <point x="302" y="269"/>
      <point x="302" y="262"/>
      <point x="302" y="255" type="curve" smooth="yes"/>
      <point x="302" y="172"/>
      <point x="260" y="52"/>
    </contour>
    <contour>
      <point x="306" y="312" type="curve"/>
      <point x="283" y="331"/>
      <point x="252" y="340"/>
      <point x="217" y="340" type="curve" smooth="yes"/>
      <point x="127" y="340"/>
      <point x="22" y="272"/>
      <point x="22" y="142" type="curve" smooth="yes"/>
      <point x="22" y="57"/>
      <point x="79" y="-1"/>
      <point x="160" y="-1" type="curve" smooth="yes"/>
      <point x="165" y="-1"/>
      <point x="169" y="0"/>
      <point x="174" y="0" type="curve" smooth="yes"/>
      <point x="296" y="10"/>
      <point x="357" y="131"/>
      <point x="357" y="311" type="curve" smooth="yes"/>
      <point x="357" y="461"/>
      <point x="292" y="567"/>
      <point x="147" y="567" type="curve" smooth="yes"/>
      <point x="120" y="567"/>
      <point x="118" y="556"/>
      <point x="118" y="546" type="curve" smooth="yes"/>
      <point x="118" y="536"/>
      <point x="128" y="525"/>
      <point x="142" y="525" type="curve" smooth="yes"/>
      <point x="247" y="525"/>
      <point x="306" y="445"/>
    </contour>
  </outline>
</glyph>
<glyph name="lessequal" format="1">
  <advance width="534"/>
  <unicode hex="2264"/>
  <outline>
    <component base="less" xOffset="79" yOffset="44"/>
    <contour>
      <point x="242" y="44" type="curve" smooth="yes"/>
      <point x="218" y="44"/>
      <point x="190" y="46"/>
      <point x="162" y="46" type="curve" smooth="yes"/>
      <point x="135" y="46"/>
      <point x="111" y="42"/>
      <point x="111" y="27" type="curve" smooth="yes"/>
      <point x="111" y="6"/>
      <point x="124" y="-1"/>
      <point x="151" y="-1" type="curve" smooth="yes"/>
      <point x="369" y="-1" type="line" smooth="yes"/>
      <point x="423" y="-1"/>
      <point x="448" y="7"/>
      <point x="448" y="37" type="curve" smooth="yes"/>
      <point x="448" y="44"/>
      <point x="445" y="46"/>
      <point x="434" y="46" type="curve" smooth="yes"/>
      <point x="339" y="46" type="line" smooth="yes"/>
      <point x="317" y="46"/>
      <point x="284" y="44"/>
    </contour>
  </outline>
</glyph>
